HIERARCHY
ROOT Hips
{
 OFFSET 0.000000 0.000000 0.000000
 CHANNELS 6 Xposition Yposition Zposition Yrotation Xrotation Zrotation
 JOINT Chest
 {
  OFFSET 0.000000 10.354800 0.006500
  CHANNELS 3 Yrotation Xrotation Zrotation
  JOINT Chest2
  {
   OFFSET 0.000000 10.435800 -0.013200
   CHANNELS 3 Yrotation Xrotation Zrotation
   JOINT Chest3
   {
    OFFSET 0.000000 10.393700 0.000000
    CHANNELS 3 Yrotation Xrotation Zrotation
    JOINT Chest4
    {
     OFFSET 0.000000 10.383100 0.000000
     CHANNELS 3 Yrotation Xrotation Zrotation
     JOINT Neck
     {
      OFFSET 0.000000 15.694000 0.000000
      CHANNELS 3 Yrotation Xrotation Zrotation
      JOINT Head
      {
       OFFSET 0.000000 9.711000 -0.028000
       CHANNELS 3 Yrotation Xrotation Zrotation
       End Site
       {
        OFFSET 0.000000 18.578700 -0.014800
       }
      }
     }
     JOINT RightCollar
     {
      OFFSET -3.157200 10.367500 0.000000
      CHANNELS 3 Yrotation Xrotation Zrotation
      JOINT RightShoulder
      {
       OFFSET -14.482500 0.000000 0.000000
       CHANNELS 3 Yrotation Xrotation Zrotation
       JOINT RightElbow
       {
        OFFSET 0.000000 -31.707800 0.000000
        CHANNELS 3 Yrotation Xrotation Zrotation
        JOINT RightWrist
        {
         OFFSET 0.000000 -25.659300 0.000000
         CHANNELS 3 Yrotation Xrotation Zrotation
         End Site
         {
          OFFSET 0.000000 -18.994300 0.000000
         }
        }
       }
      }
     }
     JOINT LeftCollar
     {
      OFFSET 3.157200 10.367500 0.000000
      CHANNELS 3 Yrotation Xrotation Zrotation
      JOINT LeftShoulder
      {
       OFFSET 14.482500 0.000000 0.000000
       CHANNELS 3 Yrotation Xrotation Zrotation
       JOINT LeftElbow
       {
        OFFSET 0.000000 -31.707800 0.000000
        CHANNELS 3 Yrotation Xrotation Zrotation
        JOINT LeftWrist
        {
         OFFSET 0.000000 -25.659300 0.000000
         CHANNELS 3 Yrotation Xrotation Zrotation
         End Site
         {
          OFFSET 0.000000 -18.994300 0.000000
         }
        }
       }
      }
     }
    }
   }
  }
 }
 JOINT RightHip
 {
  OFFSET -8.365600 -0.032100 -0.003200
  CHANNELS 3 Yrotation Xrotation Zrotation
  JOINT RightKnee
  {
   OFFSET 0.000000 -43.980000 0.003100
   CHANNELS 3 Yrotation Xrotation Zrotation
   JOINT RightAnkle
   {
    OFFSET 0.000000 -42.882800 0.005200
    CHANNELS 3 Yrotation Xrotation Zrotation
    JOINT RightToe
    {
     OFFSET 0.000000 -4.915500 10.826300
     CHANNELS 3 Yrotation Xrotation Zrotation
     End Site
     {
      OFFSET 0.000000 -1.517500 6.175900
     }
    }
   }
  }
 }
 JOINT LeftHip
 {
  OFFSET 8.365600 -0.032100 -0.003200
  CHANNELS 3 Yrotation Xrotation Zrotation
  JOINT LeftKnee
  {
   OFFSET 0.000000 -43.980000 0.003100
   CHANNELS 3 Yrotation Xrotation Zrotation
   JOINT LeftAnkle
   {
    OFFSET 0.000000 -42.882800 0.005200
    CHANNELS 3 Yrotation Xrotation Zrotation
    JOINT LeftToe
    {
     OFFSET 0.000000 -4.915500 10.826300
     CHANNELS 3 Yrotation Xrotation Zrotation
     End Site
     {
      OFFSET 0.000000 -1.517500 6.175900
     }
    }
   }
  }
 }
}
MOTION
Frames: 5
Frame Time: 0.008333
0.000000 91.618600 0.000000 0.000000 -5.767877 0.000000 0.000000 11.653817 0.000000 0.000000 -5.885947 0.000000 0.000000 -0.000000 0.000000 0.000000 -0.000000 0.000000 0.000000 12.528835 0.000000 0.000000 0.711642 0.000000 0.000000 -0.000000 0.000000 0.000000 0.000000 -90.000000 0.000000 -2.309062 0.000000 0.000000 2.309062 0.000000 0.000000 -0.000000 0.000000 0.000000 -0.000000 90.000000 0.000000 -2.309062 0.000000 0.000000 2.309062 0.000000 0.000000 8.520406 0.000000 0.000000 1.905762 0.000000 -0.000000 -4.658285 0.000000 0.000000 -0.000000 0.000000 0.000000 8.520406 0.000000 0.000000 1.905762 0.000000 -0.000000 -4.658285 0.000000 0.000000 -0.000000 0.000000
-0.240726 127.208146 42.174965 171.501925 -34.017658 -3.574007 2.877646 20.606199 0.613237 0.355995 2.666766 0.021083 0.575615 4.349292 0.039212 2.429743 17.647346 0.456026 3.029369 22.196573 -7.611770 5.097083 -1.493491 -9.093336 5.397313 7.231706 -4.599002 -1.980891 -8.615924 0.231060 -91.937215 -49.805467 116.669589 -27.841908 -13.014722 -32.905073 -1.439961 9.441160 0.852872 11.349454 -5.152829 -4.461143 84.197563 -51.280556 -118.723629 26.797708 -8.255984 24.876388 5.343605 -48.439265 1.912613 -91.752976 77.797389 -85.677842 3.965589 7.055953 -17.148990 -0.000241 -0.004384 -0.000110 -12.979409 -47.721654 0.686132 120.567836 85.801179 113.209704 -3.729136 -23.361939 0.799786 -0.000749 -0.000198 -0.000340
-0.241353 127.208378 42.173168 171.504826 -34.016074 -3.569448 2.874158 20.609629 0.608215 0.359976 2.667530 0.021590 0.577482 4.352961 0.041326 2.426918 17.642203 0.454673 3.024090 22.187958 -7.608202 5.091773 -1.502104 -9.085497 5.423033 7.212799 -4.603377 -1.990366 -8.607119 0.234140 -91.968858 -49.834042 116.679862 -27.840130 -12.994980 -32.881287 -1.448498 9.438970 0.854327 11.358941 -5.138457 -4.450882 84.180691 -51.262533 -118.716795 26.810498 -8.239080 24.891508 5.353549 -48.441027 1.903964 -91.784463 77.792309 -85.704483 3.915403 7.052080 -17.137625 -0.003765 -0.001557 -0.001710 -12.974029 -47.721605 0.682062 120.557960 85.804343 113.193344 -3.739556 -23.360358 0.804096 -0.001181 -0.000432 -0.000536
-0.241742 127.207904 42.172240 171.514731 -34.006555 -3.570594 2.875708 20.609676 0.609442 0.353725 2.662209 0.020237 0.573922 4.350363 0.041285 2.426334 17.639855 0.453243 3.023575 22.186721 -7.601704 5.087567 -1.506903 -9.081558 5.434630 7.209013 -4.603694 -1.979325 -8.610833 0.232742 -92.006099 -49.868801 116.686159 -27.825838 -12.978677 -32.857046 -1.450302 9.440513 0.856056 11.362838 -5.115495 -4.431693 84.196589 -51.242637 -118.745094 26.833964 -8.218055 24.935447 5.361772 -48.451034 1.889829 -91.806565 77.789860 -85.719122 3.916430 7.054287 -17.137178 -0.003659 -0.002178 -0.001661 -12.979867 -47.730326 0.681282 120.519058 85.803813 113.149549 -3.747177 -23.356977 0.806332 -0.001778 0.000200 -0.000807
-0.242989 127.206568 42.172250 171.531205 -33.987779 -3.571358 2.863976 20.597364 0.602314 0.353432 2.660517 0.020078 0.571412 4.347842 0.040449 2.426821 17.635330 0.452096 3.019446 22.181864 -7.594182 5.085129 -1.503847 -9.077408 5.435247 7.210662 -4.601025 -1.963398 -8.618700 0.229515 -92.045093 -49.906847 116.691282 -27.763513 -12.916097 -32.822884 -1.459697 9.444687 0.862280 11.372246 -5.092950 -4.417263 84.179984 -51.219747 -118.741012 26.838490 -8.211480 24.986363 5.362599 -48.468268 1.876536 -91.816674 77.793400 -85.726235 3.872616 7.052530 -17.129865 -0.006819 0.000203 -0.003096 -12.989953 -47.749630 0.679436 120.479710 85.802387 113.105704 -3.757025 -23.352578 0.809179 -0.000567 0.001034 -0.000257
